# xmcd
#
# Track frame offsets:
#	150
#	15194
#	27940
#	38654
#	48686
#	60619
#	73311
#	86556
#	99321
#	108683
#	119279
#	134352
#
# Disc length: 1930 seconds
#
# Revision: 0
# Processed by: cddbd v1.5.2PL0 Copyright (c) Steve Scherf et al.
# Submitted via: audiograbber 1.83.01
#
DISCID=9f07880c
DTITLE=Die Westfälischen Nachtigallen - Die Westfälischen Nachtigallen Singen I
DTITLE=hre Erfolge
DYEAR=1970
DGENRE=Folklore
TTITLE0=Amboß-Polka
TTITLE1=Die Post Im Walde
TTITLE2=Scheine, Liebe Sonne, Scheine
TTITLE3=Alte Lieder Bleiben Jung
TTITLE4=Blondy Aus Berlin
TTITLE5=Guten Start Und Fröhliche Fahrt
TTITLE6=Camping Am Blauen Meer
TTITLE7=Herzlichen Glückwunsch
TTITLE8=Hello My Little Boy
TTITLE9=Die Mühle Im Schwarzwald
TTITLE10=Schön, Wunderschön Ist Die Heimat
TTITLE11=Über Der Domstadt
EXTD=
EXTT0=
EXTT1=
EXTT2=
EXTT3=
EXTT4=
EXTT5=
EXTT6=
EXTT7=
EXTT8=
EXTT9=
EXTT10=
EXTT11=
PLAYORDER=
